<svg width="283" height="64" viewBox="0 0 283 64" fill="none" xmlns="http://www.w3.org/2000/svg">
<path d="M141.04 16C138.75 16 136.87 17.9 136.87 20.16V55.68C136.87 57.94 138.75 59.84 141.04 59.84C143.33 59.84 145.21 57.94 145.21 55.68V20.16C145.21 17.9 143.33 16 141.04 16Z" fill="#000000"/>
<path d="M208.13 16C205.84 16 203.96 17.9 203.96 20.16V55.68C203.96 57.94 205.84 59.84 208.13 59.84C210.42 59.84 212.3 57.94 212.3 55.68V20.16C212.3 17.9 210.42 16 208.13 16Z" fill="#000000"/>
<path d="M242.62 16C239.96 16 237.86 18.1 237.86 20.72V55.12C237.86 57.74 239.96 59.84 242.62 59.84C245.28 59.84 247.38 57.74 247.38 55.12V20.72C247.38 18.1 245.28 16 242.62 16Z" fill="#000000"/>
<path d="M276.98 37.92C276.98 35.66 275.1 33.76 272.81 33.76H258.13V59.84H262.33V49.6H272.48C275.14 49.6 276.98 47.7 276.98 45.44V37.92ZM262.33 45.44V37.92H272.81L272.48 45.44H262.33Z" fill="#000000"/>
</svg>
